<svg width="18" height="15" viewBox="0 0 18 15" fill="none" xmlns="http://www.w3.org/2000/svg">
<path d="M16.96 7.04041C17.2135 7.29415 17.2134 7.70554 16.96 7.95935L14.46 10.4594L14.3574 10.5433C14.1052 10.7097 13.7621 10.6814 13.54 10.4594C13.2866 10.2055 13.2865 9.79415 13.54 9.54041L14.9307 8.14978H6.5C6.14112 8.14978 5.84979 7.8592 5.84961 7.50037C5.84961 7.14138 6.14102 6.84998 6.5 6.84998H14.9307L13.54 5.45935L14 5.00037L14.46 4.54041L16.96 7.04041ZM13.54 4.54041C13.7939 4.28656 14.2061 4.28656 14.46 4.54041L13.54 5.45935C13.2866 5.20554 13.2865 4.79415 13.54 4.54041ZM10.0166 4.16638V2.50037C10.0166 2.23081 9.90931 1.97226 9.71875 1.78162C9.52809 1.59095 9.26964 1.48376 9 1.48376H3.16699C2.89736 1.48376 2.6389 1.59095 2.44824 1.78162C2.25758 1.97228 2.15039 2.23073 2.15039 2.50037V12.5004C2.15048 12.7699 2.25766 13.0285 2.44824 13.2191C2.63887 13.4096 2.89751 13.517 3.16699 13.517H9C9.26956 13.517 9.5281 13.4097 9.71875 13.2191C9.90934 13.0285 10.0165 12.7699 10.0166 12.5004V10.8334C10.0166 10.4744 10.308 10.183 10.667 10.183C11.0258 10.1832 11.3164 10.4745 11.3164 10.8334V12.5004C11.3163 13.1147 11.0721 13.7037 10.6377 14.1381C10.2033 14.5724 9.61434 14.8168 9 14.8168H3.16699C2.55257 14.8168 1.96278 14.5725 1.52832 14.1381C1.09404 13.7037 0.849696 13.1146 0.849609 12.5004V2.50037C0.849609 1.88595 1.09386 1.29615 1.52832 0.861694C1.96278 0.427235 2.55257 0.182983 3.16699 0.182983H9C9.61426 0.182983 10.2033 0.427439 10.6377 0.861694C11.0722 1.29615 11.3164 1.88595 11.3164 2.50037V4.16638C11.3164 4.52526 11.0258 4.8166 10.667 4.81677C10.308 4.81677 10.0166 4.52537 10.0166 4.16638Z" fill="#989FAB"/>
</svg>
