<svg width="20" height="21" viewBox="0 0 20 21" fill="none" xmlns="http://www.w3.org/2000/svg">
<path d="M9.99976 2.04163C12.0411 2.04173 13.7165 3.65397 13.8191 5.67053L13.825 5.86682C13.8165 7.94155 12.1935 9.61703 10.1414 9.68323H10.0935C10.0364 9.67709 9.97903 9.67842 9.92456 9.68225C7.77848 9.612 6.17466 7.93292 6.17456 5.86682C6.17456 3.75963 7.89256 2.04163 9.99976 2.04163ZM9.99976 2.29163C8.03195 2.29163 6.42456 3.89901 6.42456 5.86682C6.42466 7.80285 7.93799 9.36528 9.86499 9.43323L9.92358 9.43518L9.96167 9.42737H9.99097C10.0258 9.42737 10.0694 9.42905 10.1111 9.43225L10.1414 9.4342L10.1726 9.43323C12.0744 9.34585 13.5653 7.78242 13.575 5.86877V5.86682C13.575 3.89908 11.9675 2.29173 9.99976 2.29163Z" fill="#292D32" stroke="#989FAB"/>
<path d="M10.1475 11.3646C11.7063 11.3646 13.2374 11.761 14.3799 12.5238L14.3809 12.5248C15.4274 13.2226 15.9492 14.1313 15.9492 15.0668C15.9492 16.0047 15.4332 16.9209 14.3809 17.6254C13.2292 18.3931 11.6976 18.7913 10.1416 18.7914C8.58462 18.7914 7.04544 18.3929 5.90332 17.6263L5.90039 17.6244C4.84847 16.928 4.33301 16.0204 4.33301 15.0834C4.33301 14.1455 4.84923 13.2292 5.90137 12.5248C7.05289 11.7611 8.58872 11.3646 10.1475 11.3646ZM10.1416 11.6205C8.67484 11.6205 7.17775 11.9834 6.03906 12.7426C5.15097 13.3346 4.58301 14.1552 4.58301 15.0922C4.5832 16.0237 5.16276 16.8434 6.04004 17.4252V17.4242C7.17867 18.1872 8.67505 18.5521 10.1416 18.5521C11.6084 18.5521 13.1045 18.1865 14.2432 17.4232L14.2441 17.4242C15.132 16.8321 15.6992 16.0115 15.6992 15.0746C15.699 14.1431 15.1195 13.3234 14.2422 12.7416C13.1037 11.9831 11.6077 11.6205 10.1416 11.6205Z" fill="#292D32" stroke="#989FAB"/>
</svg>
