<svg width="17" height="18" viewBox="0 0 17 18" fill="none" xmlns="http://www.w3.org/2000/svg">
<path fill-rule="evenodd" clip-rule="evenodd" d="M8.1817 1.94006C4.39001 1.94006 1.31624 5.01384 1.31624 8.80553C1.31624 12.5972 4.39001 15.671 8.1817 15.671C11.9734 15.671 15.0472 12.5972 15.0472 8.80553C15.0472 5.01384 11.9734 1.94006 8.1817 1.94006ZM0.0662384 8.80553C0.0662384 4.32348 3.69966 0.690063 8.1817 0.690063C12.6638 0.690063 16.2972 4.32348 16.2972 8.80553C16.2972 13.2876 12.6638 16.921 8.1817 16.921C3.69966 16.921 0.0662384 13.2876 0.0662384 8.80553Z" fill="#21252B"/>
<path fill-rule="evenodd" clip-rule="evenodd" d="M12.949 13.9629C13.1927 13.7185 13.5884 13.718 13.8328 13.9618L16.7695 16.8909C17.0139 17.1346 17.0144 17.5303 16.7707 17.7747C16.5269 18.0191 16.1312 18.0196 15.8868 17.7759L12.9501 14.8468C12.7057 14.6031 12.7052 14.2073 12.949 13.9629Z" fill="#21252B"/>
</svg>
